<svg id="Layer_1" data-name="Layer 1" xmlns="http://www.w3.org/2000/svg" viewBox="0 0 1525 531"><defs><style>.cls-1{fill:#fffce4;}</style></defs><title>Artboard 1 copy</title><path class="cls-1" d="M102,93V408H410V93Zm37,295H122V113h17Zm37,0H159V113h17Zm90,0V307h54v81Zm124,0H340V287H246V388H196V113H390Z"/><path class="cls-1" d="M457.11,183.21h22.07l40,70.26V183.21H538.8V284H517.75l-41-71.49V284H457.11Z"/><path class="cls-1" d="M585.1,238.65a30.8,30.8,0,0,0,7.78-1.71q4.2-1.78,4.2-5.54,0-4.58-3.22-6.32t-9.46-1.74q-7,0-9.91,3.42a14.09,14.09,0,0,0-2.77,6.84h-18.8q.62-9.77,5.49-16.06,7.76-9.84,26.64-9.84a47.5,47.5,0,0,1,21.83,4.85q9.54,4.85,9.54,18.32V265q0,3.56.14,8.61.21,3.83,1.16,5.2a7,7,0,0,0,2.87,2.26V284H599.4a21.64,21.64,0,0,1-1.23-4.24q-.34-2-.55-4.51a40.21,40.21,0,0,1-9.35,7.45A28.26,28.26,0,0,1,574,286.3q-10.18,0-16.81-5.78t-6.63-16.37q0-13.74,10.67-19.89,5.85-3.35,17.22-4.79ZM597,247.74a21.56,21.56,0,0,1-3.78,1.88A31.92,31.92,0,0,1,588,251l-4.43.82q-6.24,1.09-9,2.67a8.9,8.9,0,0,0-4.6,8.27q0,5,2.81,7.21a10.68,10.68,0,0,0,6.84,2.22,20.36,20.36,0,0,0,11.77-3.69Q596.8,264.76,597,255Z"/><path class="cls-1" d="M624.39,224V210.14h10.39V189.36h19.28v20.78h12.1V224h-12.1V263.4q0,4.58,1.16,5.71t7.11,1.13q.89,0,1.88,0t1.95-.1v14.56l-9.23.34q-13.81.48-18.87-4.79-3.28-3.35-3.28-10.32V224Z"/><path class="cls-1" d="M697.3,200.57H677.54v-18H697.3Zm-19.76,8.89H697.3V284H677.54Z"/><path class="cls-1" d="M773.31,274.86q-9.43,11.65-28.64,11.64T716,274.86q-9.43-11.64-9.43-28,0-16.12,9.43-27.93t28.64-11.82q19.21,0,28.64,11.82t9.43,27.93Q782.75,263.21,773.31,274.86Zm-15.59-10.77q4.58-6.07,4.58-17.27t-4.58-17.24q-4.58-6-13.12-6t-13.16,6q-4.61,6-4.61,17.24t4.61,17.27q4.61,6.08,13.16,6.07T757.73,264.09Z"/><path class="cls-1" d="M850.9,213.73q7.32,6,7.32,20.06V284h-20V238.65q0-5.88-1.56-9-2.85-5.74-10.86-5.74-9.84,0-13.5,8.41a29.08,29.08,0,0,0-1.9,11.35V284H791V209.6h18.87v10.87a33,33,0,0,1,7.08-8.27q6-4.51,15.18-4.51Q843.58,207.68,850.9,213.73Z"/><path class="cls-1" d="M901.51,238.65a30.8,30.8,0,0,0,7.78-1.71q4.2-1.78,4.2-5.54,0-4.58-3.22-6.32t-9.46-1.74q-7,0-9.91,3.42a14.09,14.09,0,0,0-2.77,6.84h-18.8q.62-9.77,5.49-16.06,7.76-9.84,26.64-9.84a47.5,47.5,0,0,1,21.83,4.85q9.54,4.85,9.54,18.32V265q0,3.56.14,8.61.21,3.83,1.16,5.2A7,7,0,0,0,937,281.1V284H915.82a21.64,21.64,0,0,1-1.23-4.24q-.34-2-.55-4.51a40.21,40.21,0,0,1-9.35,7.45,28.26,28.26,0,0,1-14.3,3.62q-10.18,0-16.81-5.78t-6.63-16.37q0-13.74,10.67-19.89,5.85-3.35,17.22-4.79Zm11.91,9.09a21.56,21.56,0,0,1-3.78,1.88,31.92,31.92,0,0,1-5.23,1.33l-4.43.82q-6.24,1.09-9,2.67a8.9,8.9,0,0,0-4.6,8.27q0,5,2.81,7.21a10.68,10.68,0,0,0,6.84,2.22,20.36,20.36,0,0,0,11.77-3.69q5.38-3.69,5.59-13.47Z"/><path class="cls-1" d="M966.61,284H947.13V183.21h19.48Z"/><path class="cls-1" d="M457.45,307.61h21.06v82.65h50.31v18.12H457.45Z"/><path class="cls-1" d="M559,325H539.27V307H559Zm-19.76,8.89H559v74.51H539.27Z"/><path class="cls-1" d="M638.12,342.82q8.36,10.6,8.36,27.34,0,17.36-8.25,28.78t-23,11.42q-9.28,0-14.91-3.69A29.66,29.66,0,0,1,593,399v9.37H573.81V307.75H593.3v35.82a28.51,28.51,0,0,1,8.19-7.93q5.3-3.42,13.48-3.42Q629.76,332.22,638.12,342.82Zm-16.28,45.39q4.2-6.08,4.21-16A35.8,35.8,0,0,0,624,359.08q-3.93-9.84-14.47-9.84t-14.68,9.64q-2.07,5.13-2.07,13.26,0,9.57,4.27,15.86t13,6.29A13.51,13.51,0,0,0,621.83,388.21Z"/><path class="cls-1" d="M698,332.12l1.67.1v20q-1.85-.21-3.28-.27t-2.32-.07q-11.76,0-15.79,7.66Q676,363.8,676,372.76v35.62H656.41V333.86H675v13q4.51-7.45,7.86-10.19,5.47-4.58,14.22-4.58Q697.63,332.08,698,332.12Z"/><path class="cls-1" d="M739.21,363a30.8,30.8,0,0,0,7.78-1.71q4.2-1.78,4.2-5.54,0-4.58-3.22-6.32t-9.46-1.74q-7,0-9.91,3.42a14.09,14.09,0,0,0-2.77,6.84H707q.62-9.77,5.49-16.06,7.76-9.84,26.64-9.84A47.5,47.5,0,0,1,761,336.94q9.54,4.85,9.54,18.32v34.18q0,3.56.14,8.61.21,3.83,1.16,5.2a7,7,0,0,0,2.87,2.26v2.87H753.51a21.64,21.64,0,0,1-1.23-4.24q-.34-2-.55-4.51a40.21,40.21,0,0,1-9.35,7.45,28.26,28.26,0,0,1-14.3,3.62q-10.18,0-16.81-5.78t-6.63-16.37q0-13.74,10.67-19.89,5.85-3.35,17.22-4.79Zm11.91,9.09a21.56,21.56,0,0,1-3.78,1.88,31.92,31.92,0,0,1-5.23,1.33l-4.43.82q-6.24,1.09-9,2.67a8.9,8.9,0,0,0-4.6,8.27q0,5,2.81,7.21a10.68,10.68,0,0,0,6.84,2.22,20.36,20.36,0,0,0,11.77-3.69q5.38-3.69,5.59-13.47Z"/><path class="cls-1" d="M825.55,332.12l1.67.1v20q-1.85-.21-3.28-.27t-2.32-.07q-11.76,0-15.79,7.66-2.26,4.31-2.26,13.26v35.62H784V333.86h18.59v13q4.51-7.45,7.86-10.19,5.47-4.58,14.22-4.58Q825.17,332.08,825.55,332.12Z"/><path class="cls-1" d="M843.18,422.66l2.46.14a30.77,30.77,0,0,0,5.47-.21,9.83,9.83,0,0,0,4.38-1.57q1.71-1.16,3.18-4.85t1.27-4.51l-27.38-77.79h21.67l16.27,55,15.38-55h20.71L881,407.14q-7.4,21.19-11.72,26.28t-17.25,5.09q-2.6,0-4.17,0t-4.72-.24Z"/><path class="cls-1" d="M961.95,377.27q1,6.91,3.84,10.32,5.23,6.22,17.94,6.22a38.6,38.6,0,0,0,12.35-1.64q9-3.14,9-11.69a8.61,8.61,0,0,0-4.41-7.72q-4.41-2.67-14-4.72l-10.91-2.39q-16.08-3.55-22.1-7.72-10.19-7-10.19-21.81a29,29,0,0,1,10-22.49q10-9,29.27-9,16.12,0,27.51,8.44t11.94,24.51h-20.23q-.56-9.09-8.13-12.92a27.85,27.85,0,0,0-12.54-2.53q-8.34,0-13.32,3.28a10.38,10.38,0,0,0-5,9.16,8.64,8.64,0,0,0,4.91,8.07q3.15,1.78,13.39,4.17L998.95,351q11.63,2.73,17.43,7.31,9,7.11,9,20.58a28.91,28.91,0,0,1-10.68,22.93Q1004,411,984.55,411q-19.9,0-31.3-9t-11.4-24.71Z"/><path class="cls-1" d="M1085.73,335.37a30.31,30.31,0,0,1,12.88,11,36.63,36.63,0,0,1,5.94,15.4,95.16,95.16,0,0,1,.64,14.79h-54.27q.45,11.21,7.79,15.72a19.79,19.79,0,0,0,10.74,2.8q6.66,0,10.82-3.42a16.38,16.38,0,0,0,4-5.13h19.89q-.79,6.63-7.22,13.47-10,10.87-28,10.87a40.61,40.61,0,0,1-26.25-9.17q-11.37-9.17-11.37-29.83,0-19.36,10.26-29.69t26.65-10.33A42.43,42.43,0,0,1,1085.73,335.37Zm-29.15,16.83q-4.13,4.26-5.19,11.53H1085q-.53-7.76-5.19-11.77a17.07,17.07,0,0,0-11.55-4Q1060.71,347.94,1056.59,352.2Z"/><path class="cls-1" d="M1155,332.12l1.67.1v20q-1.85-.21-3.28-.27t-2.32-.07q-11.76,0-15.79,7.66-2.26,4.31-2.26,13.26v35.62h-19.62V333.86H1132v13q4.51-7.45,7.86-10.19,5.47-4.58,14.22-4.58Q1154.65,332.08,1155,332.12Z"/><path class="cls-1" d="M1214.62,333.86h20.92l-26.91,74.51h-20.54l-26.72-74.51h21.88l15.52,55Z"/><path class="cls-1" d="M1263.21,325h-19.76V307h19.76Zm-19.76,8.89h19.76v74.51h-19.76Z"/><path class="cls-1" d="M1323.25,360.59a17.26,17.26,0,0,0-2.81-7.52q-3.29-4.51-10.21-4.51-9.87,0-13.5,9.78-1.92,5.18-1.92,13.77,0,8.18,1.92,13.16,3.5,9.3,13.16,9.3,6.85,0,9.73-3.69a18.34,18.34,0,0,0,3.5-9.57H1343a32.58,32.58,0,0,1-6.43,16.82q-9.17,12.78-27.17,12.78t-26.48-10.66q-8.49-10.66-8.49-27.65,0-19.17,9.37-29.84t25.87-10.66q14,0,23,6.29t10.57,22.22Z"/><path class="cls-1" d="M1403.69,335.37a30.31,30.31,0,0,1,12.88,11,36.63,36.63,0,0,1,5.94,15.4,95.16,95.16,0,0,1,.64,14.79h-54.27q.45,11.21,7.79,15.72a19.79,19.79,0,0,0,10.74,2.8q6.66,0,10.82-3.42a16.38,16.38,0,0,0,4-5.13h19.89q-.79,6.63-7.22,13.47-10,10.87-28,10.87a40.61,40.61,0,0,1-26.25-9.17q-11.37-9.17-11.37-29.83,0-19.36,10.26-29.69t26.65-10.33A42.43,42.43,0,0,1,1403.69,335.37Zm-29.15,16.83q-4.13,4.26-5.19,11.53h33.56q-.53-7.76-5.19-11.77a17.07,17.07,0,0,0-11.55-4Q1378.68,347.94,1374.55,352.2Z"/></svg>